<?xml version="1.0" encoding="UTF-8" standalone="no"?>
<!-- Created with Inkscape (http://www.inkscape.org/) -->

<svg
   width="1000"
   height="1000"
   viewBox="0 0 1000 1000"
   version="1.1"
   id="SVGRoot"
   sodipodi:docname="emblem.svg"
   xml:space="preserve"
   inkscape:version="1.2.1 (9c6d41e410, 2022-07-14)"
   xmlns:inkscape="http://www.inkscape.org/namespaces/inkscape"
   xmlns:sodipodi="http://sodipodi.sourceforge.net/DTD/sodipodi-0.dtd"
   xmlns="http://www.w3.org/2000/svg"
   xmlns:svg="http://www.w3.org/2000/svg"><sodipodi:namedview
     id="namedview196"
     pagecolor="#ffffff"
     bordercolor="#000000"
     borderopacity="0.25"
     inkscape:showpageshadow="2"
     inkscape:pageopacity="0.0"
     inkscape:pagecheckerboard="0"
     inkscape:deskcolor="#d1d1d1"
     inkscape:document-units="px"
     showgrid="false"
     inkscape:zoom="0.71519173"
     inkscape:cx="391.50341"
     inkscape:cy="461.41473"
     inkscape:window-width="1920"
     inkscape:window-height="1001"
     inkscape:window-x="0"
     inkscape:window-y="42"
     inkscape:window-maximized="1"
     inkscape:current-layer="layer1" /><defs
     id="defs191" /><g
     inkscape:label="Layer 1"
     inkscape:groupmode="layer"
     id="layer1"><path
       sodipodi:type="star"
       style="display:none;opacity:0.74;fill:#004e75;fill-opacity:1"
       id="path1159"
       inkscape:flatsided="true"
       sodipodi:sides="8"
       sodipodi:cx="166.83118"
       sodipodi:cy="254.11813"
       sodipodi:r1="652.6499"
       sodipodi:r2="602.96991"
       sodipodi:arg1="0.38627867"
       sodipodi:arg2="0.77897775"
       inkscape:rounded="0"
       inkscape:randomized="0"
       d="M 771.39218,500 420.45562,855.47205 -79.050692,858.67913 -434.52274,507.74258 -437.72982,8.2362648 -86.793269,-347.23579 412.71305,-350.44287 768.1851,0.49368818 Z"
       transform="matrix(0.8270464,0,0,0.8270464,362.02288,289.83251)" /><ellipse
       style="opacity:0.74;fill:#f2f2f2;fill-opacity:1;stroke:none;stroke-width:1.2534;stroke-dasharray:none;stroke-opacity:1"
       id="path4857"
       cy="423.63223"
       cx="485.30573"
       rx="241.33621"
       ry="241.20033" /><path
       style="display:inline;fill:#000000;fill-opacity:1;stroke:none;stroke-width:1.333;stroke-dasharray:none;stroke-opacity:1"
       d="m 273.54625,849.80379 c 0,-0.97666 39.00012,-29.54192 50.66667,-37.11029 15.92986,-10.33408 31.55657,-18.50586 48.9819,-25.61439 24.4426,-9.97117 43.37086,-14.88821 77.35143,-20.09376 l 5.66667,-0.86809 v -15.69134 -15.69133 l -9.64508,-0.89641 C 417.18623,731.10744 374.44581,718.24782 344.32382,703.07527 323.97144,692.82371 295.8668,673.92745 280.21291,659.97005 l -6,-5.34974 -7.56768,7.19901 c -8.28068,7.87727 -12.46608,8.97376 -19.79234,5.1852 -4.99951,-2.58535 -6.63998,-5.76191 -6.63998,-12.85745 0,-5.62564 0.36342,-6.07664 23.70777,-29.42099 23.69231,-23.69231 23.71164,-23.70775 29.66666,-23.67811 8.9399,0.0445 14.62557,5.73156 14.62557,14.62918 0,3.19858 -1.62717,5.88797 -6.99904,11.56792 l -6.99905,7.40046 4.66572,3.97372 c 45.12408,38.43152 97.28022,60.91266 157.33238,67.81582 17.28972,1.98749 57.10087,0.93025 74.15018,-1.96916 51.77041,-8.80412 98.29887,-30.13426 137.91449,-63.22443 75.87614,-63.37788 113.67986,-165.74814 97.32725,-263.5565 -8.7159,-52.13156 -32.123,-102.23124 -65.62443,-140.46005 l -3.90852,-4.46005 -7.183,6.79338 c -6.1274,5.79504 -7.95208,6.79338 -12.41634,6.79338 -9.61829,0 -16.76728,-9.55873 -13.56788,-18.14128 1.63219,-4.37844 41.39918,-45.02766 46.90871,-47.94939 5.74194,-3.04497 11.16998,-2.3747 16.04518,1.9813 3.7082,3.31327 4.35437,4.79039 4.35437,9.95388 0,5.52306 -0.62173,6.6928 -6.97841,13.12944 l -6.97842,7.06618 9.44267,11.31327 c 78.1344,93.61283 94.0237,228.16623 39.91177,337.97994 -31.09202,63.09755 -80.03133,111.81225 -143.39761,142.73949 -31.05302,15.15605 -58.37471,23.6412 -91.43231,28.39559 l -16.5677,2.3828 -0.37488,15.48646 -0.37489,15.48648 6.37489,0.81595 c 31.04016,3.97293 66.36574,14.29168 93.04155,27.17779 21.26144,10.27064 36.56187,19.8978 63.1206,39.71607 l 22.0664,16.46605 H 485.80641 c -116.74308,0 -212.26016,-0.24653 -212.26016,-0.54787 z m 329.93334,-28.63645 c -2.30007,-2.15053 -22.46789,-10.43435 -35.98004,-14.77856 -32.22733,-10.36126 -69.44238,-14.83563 -101.47034,-12.19979 -32.61338,2.68403 -65.92208,11.08876 -90.48296,22.83144 l -10.66667,5.09979 119.93334,0.11573 c 69.95124,0.0675 119.40546,-0.37784 118.66667,-1.0686 z M 451.28116,662.94305 C 353.77813,648.72317 275.28624,577.9431 250.83952,482.19475 c -6.93618,-27.16633 -8.87289,-65.37312 -4.717,-93.05531 15.35281,-102.26414 92.02172,-182.63088 193.49671,-202.82926 27.57014,-5.48778 65.66357,-5.12964 95.26036,0.8956 64.66135,13.16359 123.30726,55.38733 158.5811,114.17481 39.92377,66.53707 44.11301,151.75192 11.00045,223.76458 -18.92077,41.14859 -53.07181,79.62728 -92.30036,103.99676 -29.01816,18.0266 -63.63014,30.13016 -98.57955,34.47259 -15.13732,1.88079 -47.16675,1.53557 -62.30007,-0.67147 z m 74.93176,-29.96184 c 65.45864,-13.662 120.38249,-55.57547 149.33814,-113.96289 13.58389,-27.39115 19.32072,-47.67333 22.15667,-78.33334 4.29912,-46.47872 -8.52718,-95.25456 -35.85079,-136.33334 -11.40824,-17.15132 -38.82015,-44.84632 -55.64402,-56.21866 -33.81444,-22.85735 -71.09086,-35.3407 -111.33333,-37.28394 -104.65039,-5.0534 -196.21761,66.30842 -218.95365,170.63892 -2.53158,11.61682 -2.94858,17.58455 -2.94858,42.19702 0,24.61247 0.417,30.5802 2.94858,42.19701 12.37689,56.79477 44.9835,104.73469 92.5373,136.05314 27.43133,18.06602 56.69873,28.8243 91.74968,33.72588 14.22417,1.98914 50.73205,0.50682 66,-2.6798 z"
       id="path4077"
       inkscape:label="path4077" /><path
       d="m 671.26,371.29548 c -40.60799,-6.36989 -118.04185,-7.63059 -173.84466,7.63058 -3.78213,0 -20.304,0 -24.08612,0 -55.80281,-15.26117 -133.23667,-13.93411 -173.84467,-7.63058 -5.04281,1.2607 -5.04281,22.8254 -1.2607,24.08611 7.63058,3.78212 11.4127,11.4127 11.4127,11.4127 0,0 2.52141,7.63059 8.89129,35.49882 6.30353,28.00093 22.82541,33.1101 22.82541,33.1101 0,0 20.30399,5.04283 43.1294,5.04283 22.82541,0 36.82587,-1.26004 52.0207,-8.89063 15.19482,-7.63058 21.5647,-27.93524 21.5647,-27.93524 0,0 7.63059,-17.78258 12.67341,-34.23812 1.2607,-5.10917 26.67388,-5.10917 27.93458,0 5.04348,16.52188 12.67407,34.23812 12.67407,34.23812 0,0 6.36988,20.30466 21.5647,27.93524 15.26118,7.63059 29.19529,8.89063 52.02003,8.89063 22.82541,0 43.12941,-5.04283 43.12941,-5.04283 0,0 16.52188,-3.78211 22.82541,-32.9774 6.36987,-29.19529 8.89128,-35.49881 8.89128,-35.49881 0,0 3.78146,-7.63059 11.41204,-11.4127 5.1762,-1.32706 5.1762,-24.21882 0.067,-24.21882 z"
       id="path5066"
       style="display:inline;fill:#000000;fill-opacity:1;stroke:none;stroke-width:0.884482;stroke-dasharray:none;stroke-opacity:1" /></g></svg>
